<svg data-v-423bf9ae="" xmlns="http://www.w3.org/2000/svg" viewBox="0 0 565 90" class="iconLeft"><!----><!----><!----><g data-v-423bf9ae="" id="a932bc93-f438-411b-a150-54d68ed8f1bc" fill="black" transform="matrix(5.454545454545454,0,0,5.454545454545454,159.38965631073174,-5.236362890763715)"><path d="M6.06 11.31L6.06 11.51C6.01 12.87 5.57 13.47 4.26 13.47C2.53 13.47 2.30 12.49 2.30 10.88L2.30 7.53C2.30 5.96 2.56 4.96 4.26 4.96C5.47 4.96 6.03 5.60 6.03 6.89L6.03 7.04L7.43 7.04L7.43 6.92C7.43 4.82 6.44 3.71 4.26 3.71C1.74 3.71 0.91 5.05 0.91 7.53L0.91 10.93C0.91 13.37 1.71 14.71 4.26 14.71C6.54 14.71 7.41 13.58 7.45 11.49L7.45 11.31ZM11.56 13.47C10.57 13.50 10.32 13.30 10.32 11.97L10.32 3.74L9.03 3.74L9.03 11.90C9.03 13.99 9.48 14.81 11.56 14.60ZM13.90 9.28C13.90 7.67 14.31 7.21 15.53 7.21C16.73 7.21 17.14 7.67 17.14 9.28L17.14 11.51C17.14 13.12 16.73 13.58 15.53 13.58C14.31 13.58 13.90 13.12 13.90 11.51ZM15.53 6.08C13.52 6.08 12.61 6.93 12.61 9.27L12.61 11.52C12.61 13.86 13.52 14.71 15.53 14.71C17.53 14.71 18.44 13.86 18.44 11.52L18.44 9.27C18.44 6.93 17.53 6.08 15.53 6.08ZM25.82 14.55L25.82 6.24L24.53 6.24L24.53 11.90C24.53 13.02 23.90 13.58 22.93 13.58C21.73 13.58 21.39 12.98 21.39 11.62L21.39 6.24L20.10 6.24L20.10 11.73C20.10 13.68 20.69 14.71 22.57 14.71C23.48 14.71 24.21 14.43 24.61 13.92L24.70 14.55ZM32.27 14.55L33.39 14.55L33.39 3.74L32.10 3.74L32.10 6.79C31.72 6.36 31.02 6.08 30.23 6.08C28.76 6.08 27.58 6.96 27.58 9.21L27.58 11.51C27.58 13.59 28.41 14.71 30.10 14.71C31.11 14.71 31.82 14.41 32.19 13.87ZM32.10 11.91C32.10 13.03 31.46 13.58 30.46 13.58C29.34 13.58 28.87 12.92 28.87 11.54L28.87 9.28C28.87 7.74 29.50 7.21 30.49 7.21C31.40 7.21 32.10 7.69 32.10 9.03ZM45.42 14.55L46.97 14.55L49.17 3.88L47.73 3.88L46.14 12.70L44.44 4.16L43.02 4.16L41.27 12.77L39.70 3.88L38.23 3.88L40.43 14.55L41.97 14.55L43.69 6.23ZM54.21 14.55L55.36 14.55L55.36 8.83C55.36 6.79 54.36 6.08 52.67 6.08C50.78 6.08 49.87 6.90 49.87 8.79L51.04 8.79C51.04 7.53 51.60 7.14 52.61 7.14C53.66 7.14 54.12 7.67 54.12 8.90L54.12 9.93C53.73 9.87 53.16 9.83 52.78 9.83C50.55 9.83 49.62 10.64 49.62 12.38C49.62 13.94 50.55 14.71 52.05 14.71C52.93 14.71 53.72 14.43 54.17 13.78ZM54.12 11.80C54.12 13.03 53.28 13.65 52.33 13.65C51.38 13.65 50.90 13.19 50.90 12.26C50.90 11.28 51.41 10.81 52.82 10.81C53.16 10.81 53.75 10.85 54.12 10.91ZM59.81 9.67C58.70 9.48 58.24 9.23 58.24 8.32C58.24 7.62 58.67 7.18 59.71 7.18C60.82 7.18 61.22 7.63 61.25 8.47L62.45 8.47C62.45 6.93 61.61 6.08 59.74 6.08C57.96 6.08 56.98 6.96 56.98 8.37C56.98 10.07 57.99 10.53 59.49 10.78C60.63 10.98 61.28 11.24 61.28 12.28C61.28 13.17 60.75 13.61 59.71 13.61C58.49 13.61 58.03 13.10 58.03 12.21L56.80 12.21C56.80 13.85 57.74 14.71 59.65 14.71C61.54 14.71 62.58 13.79 62.58 12.19C62.58 10.35 61.22 9.91 59.81 9.67ZM66.58 13.54C65.70 13.54 65.34 13.22 65.34 12.00L65.34 7.66L67.24 7.66L67.24 6.52L65.35 6.52L65.35 4.58L64.04 4.58L64.04 11.96C64.04 13.83 64.58 14.71 66.30 14.71C66.68 14.71 67.07 14.66 67.24 14.62L67.24 13.47C67.06 13.51 66.82 13.54 66.58 13.54ZM73.07 12.22C73.04 13.17 72.65 13.61 71.51 13.61C70.31 13.61 69.89 13.03 69.89 11.63L69.89 10.71L74.34 10.71L74.34 9.17C74.34 7.04 73.46 6.08 71.50 6.08C69.57 6.08 68.61 7.08 68.61 9.24L68.61 11.54C68.61 13.82 69.52 14.71 71.53 14.71C73.44 14.71 74.23 13.87 74.27 12.22ZM71.51 7.20C72.73 7.20 73.11 7.87 73.11 9.23L73.11 9.69L69.89 9.69L69.89 9.30C69.89 7.80 70.31 7.20 71.51 7.20Z"></path></g><!----><g data-v-423bf9ae="" id="724a008e-6727-4dcb-a2e6-1055eda24f98" transform="matrix(1.663278487984021,0,0,1.663278487984021,-10.487954834436081,-37.20897593189014)" stroke="none" fill="black"><path d="M11.74 35.89h18.55a1.5 1.5 0 0 0 0-3H11.74a1.5 1.5 0 1 0 0 3z"></path><path d="M92 74.07h-9c-7-33.36-33.1-39.51-36.77-40.21v-9.43a1.5 1.5 0 0 0-1.5-1.5h-8.26a1.5 1.5 0 0 0-1.5 1.5v2.28H8a1.5 1.5 0 0 0-1.5 1.5v28.86a1.5 1.5 0 0 0 1.5 1.5h27v2.26a1.5 1.5 0 0 0 1.5 1.5h8.28a1.5 1.5 0 0 0 1.5-1.5v-1a23.83 23.83 0 0 1 9.06 14.21H28.22a1.5 1.5 0 0 0 0 3H92a1.5 1.5 0 0 0 0-2.97zm-57-18.5H9.49V29.71H35v25.86zm8.28 1.21a1.49 1.49 0 0 0 0 .58v2H38V25.93h5.28v30.85zm15.09 17.29a26.67 26.67 0 0 0-12.12-17.85V36.9C51 37.85 73.34 43.91 80 74.07H58.37z"></path><path d="M55 52.4a1.5 1.5 0 1 0-1.36 2.67 23.82 23.82 0 0 1 11.53 17.36 1.5 1.5 0 0 0 1.49 1.31h.19a1.5 1.5 0 0 0 1.3-1.74A26.56 26.56 0 0 0 55 52.4z"></path></g><!----></svg>